<svg width="260" height="38" viewBox="0 0 260 38" fill="none" xmlns="http://www.w3.org/2000/svg">
<path d="M251.807 34.04C250.733 34.04 249.921 33.764 249.369 33.212C248.847 32.66 248.587 31.9547 248.587 31.096C248.587 30.452 248.694 29.7773 248.909 29.072C249.154 28.3667 249.384 27.646 249.599 26.91C249.813 26.1433 249.921 25.4073 249.921 24.702C249.921 23.8433 249.737 23.2607 249.369 22.954C249.031 22.6167 248.602 22.448 248.081 22.448C247.13 22.448 246.164 22.8467 245.183 23.644C244.201 24.4107 243.251 25.4073 242.331 26.634C241.411 27.83 240.552 29.072 239.755 30.36C238.957 31.648 238.252 32.798 237.639 33.81C237.148 33.81 236.688 33.718 236.259 33.534C235.799 33.3807 235.446 33.1353 235.201 32.798C235.201 32.6447 235.369 32.1693 235.707 31.372C236.013 30.5747 236.381 29.5933 236.811 28.428C237.24 27.2627 237.623 26.0667 237.961 24.84C238.298 23.6133 238.467 22.494 238.467 21.482C238.651 21.2673 238.942 21.0527 239.341 20.838C239.739 20.6233 240.153 20.516 240.583 20.516C241.411 20.516 241.825 20.9147 241.825 21.712C241.825 22.2027 241.687 23.0307 241.411 24.196C241.135 25.3307 240.782 26.5267 240.353 27.784C241.181 26.5267 242.101 25.2847 243.113 24.058C244.155 22.8007 245.259 21.758 246.425 20.93C247.59 20.102 248.755 19.688 249.921 19.688C251.117 19.688 251.975 20.1173 252.497 20.976C253.049 21.8347 253.325 22.7853 253.325 23.828C253.325 24.7787 253.171 25.668 252.865 26.496C252.558 27.2933 252.236 28.0753 251.899 28.842C251.592 29.578 251.439 30.3293 251.439 31.096C251.439 31.74 251.561 32.2 251.807 32.476C252.083 32.7213 252.42 32.844 252.819 32.844C253.585 32.844 254.352 32.4913 255.119 31.786C255.885 31.05 256.621 30.13 257.327 29.026C258.063 27.922 258.707 26.8027 259.259 25.668L259.765 26.266C259.121 27.7687 258.4 29.1027 257.603 30.268C256.805 31.4333 255.931 32.3533 254.981 33.028C254.03 33.7027 252.972 34.04 251.807 34.04Z" fill="black"/>
<path d="M223.322 34.592C222.003 34.592 221.068 34.178 220.516 33.35C219.964 32.5527 219.688 31.5713 219.688 30.406C219.688 29.4553 219.841 28.474 220.148 27.462C220.454 26.45 220.853 25.4993 221.344 24.61C221.865 23.7207 222.432 23 223.046 22.448C223.69 21.896 224.334 21.62 224.978 21.62C225.131 21.62 225.284 21.6507 225.438 21.712C225.622 21.7427 225.79 21.7887 225.944 21.85C225.668 22.0953 225.33 22.5553 224.932 23.23C224.564 23.874 224.211 24.6253 223.874 25.484C223.536 26.312 223.245 27.14 223 27.968C222.785 28.796 222.678 29.5013 222.678 30.084C222.678 31.004 222.831 31.6787 223.138 32.108C223.444 32.5067 223.843 32.706 224.334 32.706C224.978 32.706 225.744 32.3687 226.634 31.694C227.523 30.9887 228.397 30.0993 229.256 29.026C228.397 28.3207 227.722 27.4007 227.232 26.266C226.772 25.1007 226.542 23.92 226.542 22.724C226.542 21.712 226.71 20.7613 227.048 19.872C227.416 18.9827 227.937 18.2773 228.612 17.756C229.286 17.204 230.099 16.928 231.05 16.928C232.307 16.928 233.15 17.2653 233.58 17.94C234.009 18.6147 234.224 19.458 234.224 20.47C234.224 21.666 233.932 23 233.35 24.472C232.767 25.9133 232.031 27.3087 231.142 28.658C231.694 28.9647 232.276 29.118 232.89 29.118C233.38 29.118 233.932 29.026 234.546 28.842C235.159 28.6273 235.757 28.2747 236.34 27.784C236.953 27.2933 237.444 26.634 237.812 25.806L238.364 26.266C237.75 27.7073 236.876 28.7347 235.742 29.348C234.638 29.9307 233.58 30.222 232.568 30.222C232.169 30.222 231.786 30.1913 231.418 30.13C231.05 30.038 230.697 29.9153 230.36 29.762C229.317 31.142 228.167 32.292 226.91 33.212C225.683 34.132 224.487 34.592 223.322 34.592ZM230.084 27.83C230.85 26.6953 231.479 25.5147 231.97 24.288C232.491 23.0307 232.752 21.85 232.752 20.746C232.752 19.8567 232.614 19.2127 232.338 18.814C232.092 18.3847 231.77 18.17 231.372 18.17C230.758 18.17 230.13 18.6147 229.486 19.504C228.842 20.3933 228.52 21.5127 228.52 22.862C228.52 23.7513 228.642 24.656 228.888 25.576C229.164 26.4653 229.562 27.2167 230.084 27.83Z" fill="black"/>
<path d="M212.364 34.316C211.168 34.316 210.279 33.9327 209.696 33.166C209.113 32.43 208.822 31.5253 208.822 30.452C208.822 29.7467 208.945 28.8573 209.19 27.784C209.466 26.7107 209.819 25.5913 210.248 24.426C210.677 23.23 211.168 22.1107 211.72 21.068C212.303 20.0253 212.916 19.182 213.56 18.538C214.204 17.8633 214.833 17.526 215.446 17.526C215.722 17.526 215.952 17.618 216.136 17.802C216.351 17.9553 216.458 18.2007 216.458 18.538C216.458 18.906 216.213 19.504 215.722 20.332C215.262 21.16 214.71 22.1107 214.066 23.184C213.422 24.2573 212.855 25.392 212.364 26.588C211.904 27.7533 211.674 28.8727 211.674 29.946C211.674 31.05 211.858 31.786 212.226 32.154C212.594 32.522 213.161 32.706 213.928 32.706C214.971 32.706 216.075 32.1847 217.24 31.142C218.436 30.0993 219.693 28.2747 221.012 25.668L221.426 26.128C220.537 28.7653 219.249 30.7893 217.562 32.2C215.906 33.6107 214.173 34.316 212.364 34.316ZM217.884 13.248C217.393 13.248 216.949 13.1253 216.55 12.88C216.182 12.6347 215.998 12.2513 215.998 11.73C215.998 11.086 216.366 10.534 217.102 10.074C217.869 9.58334 218.62 9.33801 219.356 9.33801C219.816 9.33801 220.184 9.44534 220.46 9.66C220.736 9.87467 220.874 10.2427 220.874 10.764C220.874 11.3467 220.552 11.914 219.908 12.466C219.295 12.9873 218.62 13.248 217.884 13.248Z" fill="black"/>
<path d="M199.845 35.236C198.526 35.236 197.514 34.8527 196.809 34.086C196.104 33.3193 195.751 32.1847 195.751 30.682C195.751 29.3327 195.996 27.6767 196.487 25.714C197.008 23.7207 197.652 21.6813 198.419 19.596C198.112 19.5347 197.821 19.4887 197.545 19.458C197.269 19.3967 197.008 19.32 196.763 19.228V18.4C197.008 18.4307 197.3 18.4613 197.637 18.492C197.974 18.5227 198.358 18.5533 198.787 18.584C199.431 16.928 200.121 15.3333 200.857 13.8C201.593 12.236 202.314 10.856 203.019 9.66C203.755 8.43334 204.445 7.46734 205.089 6.762C205.764 6.026 206.331 5.658 206.791 5.658C207.036 5.658 207.251 5.75 207.435 5.934C207.65 6.08734 207.757 6.33267 207.757 6.67C207.757 7.19134 207.435 8.05 206.791 9.246C206.147 10.4113 205.35 11.8067 204.399 13.432C203.448 15.0573 202.528 16.8207 201.639 18.722C201.915 18.722 202.191 18.722 202.467 18.722C202.774 18.722 203.065 18.722 203.341 18.722C204.353 18.722 205.411 18.7067 206.515 18.676C207.65 18.6453 208.784 18.5687 209.919 18.446V19.274C208.232 19.458 206.714 19.596 205.365 19.688C204.046 19.78 202.866 19.826 201.823 19.826C201.7 19.826 201.578 19.826 201.455 19.826C201.363 19.826 201.256 19.826 201.133 19.826C200.428 21.4513 199.83 23.1227 199.339 24.84C198.848 26.5573 198.603 28.2287 198.603 29.854C198.603 31.1727 198.802 32.1233 199.201 32.706C199.6 33.258 200.259 33.534 201.179 33.534C202.774 33.534 204.338 32.8287 205.871 31.418C207.404 30.0073 208.754 28.0907 209.919 25.668L210.517 26.128C209.781 27.8453 208.846 29.394 207.711 30.774C206.607 32.154 205.38 33.2427 204.031 34.04C202.682 34.8373 201.286 35.236 199.845 35.236Z" fill="black"/>
<path d="M178.108 35.282C177.157 35.282 176.36 34.96 175.716 34.316C175.041 33.7027 174.704 32.752 174.704 31.464C174.704 30.36 174.949 29.1793 175.44 27.922C175.93 26.634 176.605 25.3767 177.464 24.15C178.322 22.8927 179.288 21.758 180.362 20.746C181.466 19.7033 182.616 18.8753 183.812 18.262C185.038 17.6487 186.25 17.342 187.446 17.342C188.642 17.342 189.638 17.664 190.436 18.308C191.233 18.9213 191.632 19.7493 191.632 20.792C191.632 21.5587 191.417 22.08 190.988 22.356C190.589 22.632 190.052 22.77 189.378 22.77C189.439 22.5247 189.485 22.264 189.516 21.988C189.577 21.6813 189.608 21.4053 189.608 21.16C189.608 20.4547 189.439 19.8567 189.102 19.366C188.764 18.8447 188.182 18.584 187.354 18.584C186.495 18.584 185.621 18.8907 184.732 19.504C183.842 20.0867 182.984 20.884 182.156 21.896C181.328 22.8773 180.592 23.9507 179.948 25.116C179.304 26.2813 178.798 27.4313 178.43 28.566C178.062 29.7007 177.878 30.7127 177.878 31.602C177.878 32.798 178.292 33.396 179.12 33.396C179.825 33.396 180.592 33.074 181.42 32.43C182.248 31.7553 183.091 30.912 183.95 29.9C184.839 28.8573 185.682 27.784 186.48 26.68C187.277 25.576 187.982 24.564 188.596 23.644C188.718 23.46 188.795 23.368 188.826 23.368C189.01 23.3987 189.24 23.46 189.516 23.552C189.822 23.644 190.083 23.7667 190.298 23.92C190.512 24.0733 190.62 24.2727 190.62 24.518C190.62 24.794 190.482 25.1773 190.206 25.668C189.93 26.128 189.623 26.6647 189.286 27.278C188.948 27.8913 188.642 28.52 188.366 29.164C188.09 29.7773 187.952 30.36 187.952 30.912C187.952 31.372 188.074 31.832 188.32 32.292C188.565 32.7213 188.964 32.936 189.516 32.936C190.344 32.936 191.432 32.338 192.782 31.142C194.131 29.9153 195.496 28.0907 196.876 25.668L197.336 26.128C196.692 27.784 195.864 29.2407 194.852 30.498C193.84 31.7553 192.751 32.7367 191.586 33.442C190.451 34.1473 189.332 34.5 188.228 34.5C187.093 34.5 186.25 34.1627 185.698 33.488C185.176 32.8133 184.916 32.0773 184.916 31.28C184.916 31.096 184.931 30.8967 184.962 30.682C184.992 30.4367 185.023 30.1913 185.054 29.946C183.735 31.7247 182.524 33.0587 181.42 33.948C180.346 34.8373 179.242 35.282 178.108 35.282Z" fill="black"/>
<path d="M165.549 35.144C163.679 35.144 162.268 34.6227 161.317 33.58C160.397 32.568 159.937 31.3107 159.937 29.808C159.937 28.428 160.275 26.9713 160.949 25.438C161.655 23.9047 162.575 22.4633 163.709 21.114C164.875 19.7647 166.147 18.676 167.527 17.848C168.907 16.9893 170.272 16.56 171.621 16.56C172.327 16.56 172.971 16.744 173.553 17.112C174.167 17.48 174.473 18.2313 174.473 19.366C174.473 20.5313 174.121 21.6353 173.415 22.678C172.741 23.69 171.836 24.5947 170.701 25.392C169.597 26.1893 168.371 26.8487 167.021 27.37C165.703 27.8607 164.384 28.1673 163.065 28.29C163.004 28.5967 162.958 28.888 162.927 29.164C162.897 29.44 162.881 29.7007 162.881 29.946C162.881 30.406 162.927 30.866 163.019 31.326C163.142 31.786 163.341 32.2153 163.617 32.614C163.893 32.982 164.261 33.2733 164.721 33.488C165.212 33.7027 165.81 33.81 166.515 33.81C167.834 33.81 169.137 33.442 170.425 32.706C171.713 31.9393 172.909 30.9427 174.013 29.716C175.117 28.4893 176.053 27.14 176.819 25.668L177.371 26.082C176.543 27.922 175.485 29.5167 174.197 30.866C172.94 32.2153 171.56 33.258 170.057 33.994C168.585 34.7607 167.083 35.144 165.549 35.144ZM163.295 27.416C164.123 27.14 165.059 26.7413 166.101 26.22C167.144 25.668 168.141 25.024 169.091 24.288C170.073 23.552 170.87 22.7393 171.483 21.85C172.127 20.9607 172.449 20.0253 172.449 19.044C172.449 18.7067 172.388 18.446 172.265 18.262C172.143 18.078 171.882 17.986 171.483 17.986C170.747 17.986 169.965 18.2773 169.137 18.86C168.309 19.412 167.512 20.148 166.745 21.068C165.979 21.988 165.289 23 164.675 24.104C164.062 25.208 163.602 26.312 163.295 27.416Z" fill="black"/>
<path d="M152.547 34.316C151.504 34.316 150.676 34.04 150.063 33.488C149.48 32.936 149.189 32.2153 149.189 31.326C149.189 30.406 149.404 29.44 149.833 28.428C150.262 27.416 150.676 26.4193 151.075 25.438C151.504 24.426 151.719 23.5213 151.719 22.724C151.719 21.7427 151.428 21.022 150.845 20.562C150.293 20.0713 149.726 19.6267 149.143 19.228C148.438 21.0373 147.702 22.7547 146.935 24.38C146.168 26.0053 145.54 27.232 145.049 28.06L144.635 27.278C145.064 26.4807 145.616 25.3153 146.291 23.782C146.996 22.2487 147.686 20.5007 148.361 18.538C148.054 18.2313 147.901 17.8633 147.901 17.434C147.901 16.514 148.162 15.7627 148.683 15.18C149.204 14.5973 149.588 14.306 149.833 14.306C150.17 14.306 150.354 14.4593 150.385 14.766C150.446 15.042 150.477 15.2567 150.477 15.41C150.477 15.5633 150.385 15.87 150.201 16.33C150.048 16.7593 149.971 17.02 149.971 17.112C149.971 17.5413 150.201 17.94 150.661 18.308C151.152 18.6453 151.704 19.044 152.317 19.504C152.93 19.9333 153.467 20.47 153.927 21.114C154.418 21.7273 154.663 22.5247 154.663 23.506C154.663 24.426 154.464 25.3613 154.065 26.312C153.697 27.2627 153.314 28.1673 152.915 29.026C152.547 29.8847 152.363 30.636 152.363 31.28C152.363 31.832 152.501 32.2 152.777 32.384C153.053 32.568 153.375 32.66 153.743 32.66C154.479 32.66 155.23 32.43 155.997 31.97C156.794 31.51 157.561 30.9273 158.297 30.222C159.033 29.5167 159.692 28.7807 160.275 28.014C160.858 27.2167 161.287 26.4807 161.563 25.806L162.161 26.266C161.578 27.554 160.781 28.8267 159.769 30.084C158.757 31.3107 157.622 32.3227 156.365 33.12C155.138 33.9173 153.866 34.316 152.547 34.316Z" fill="black"/>
<path d="M131.933 37.122C129.755 37.122 127.992 36.57 126.643 35.466C125.324 34.3927 124.358 32.9973 123.745 31.28C123.162 29.5627 122.871 27.7687 122.871 25.898C122.871 23.4753 123.239 21.0373 123.975 18.584C124.711 16.1307 125.707 13.8 126.965 11.592C128.253 9.35333 129.709 7.37533 131.335 5.658C132.96 3.91 134.662 2.54533 136.441 1.564C138.25 0.551998 140.029 0.0459976 141.777 0.0459976C143.034 0.0459976 144.046 0.352664 144.813 0.965997C145.61 1.54867 146.009 2.56067 146.009 4.002C146.009 4.89133 145.855 5.90333 145.549 7.038C145.242 8.142 144.828 9.21533 144.307 10.258C143.785 11.27 143.203 12.1133 142.559 12.788C141.945 13.4627 141.317 13.8 140.673 13.8C140.427 13.8 140.167 13.7233 139.891 13.57C139.645 13.4167 139.431 13.1407 139.247 12.742C139.707 12.2207 140.213 11.5767 140.765 10.81C141.347 10.0127 141.899 9.18466 142.421 8.326C142.942 7.43666 143.356 6.578 143.663 5.75C144 4.89133 144.169 4.14 144.169 3.496C144.169 2.88266 143.985 2.392 143.617 2.024C143.279 1.62533 142.712 1.426 141.915 1.426C140.596 1.426 139.216 1.96267 137.775 3.036C136.364 4.10933 134.984 5.55067 133.635 7.36C132.316 9.13867 131.12 11.132 130.047 13.34C128.973 15.548 128.115 17.802 127.471 20.102C126.857 22.402 126.551 24.5947 126.551 26.68C126.551 28.1827 126.765 29.624 127.195 31.004C127.624 32.3533 128.314 33.442 129.265 34.27C130.246 35.1287 131.503 35.558 133.037 35.558C134.662 35.558 136.272 35.098 137.867 34.178C139.492 33.258 140.979 32.0467 142.329 30.544C143.678 29.0413 144.751 27.416 145.549 25.668L146.193 26.128C145.181 28.1213 143.954 29.9613 142.513 31.648C141.071 33.304 139.461 34.6227 137.683 35.604C135.904 36.616 133.987 37.122 131.933 37.122Z" fill="black"/>
<path d="M98.882 35.466C97.4407 35.466 96.2907 35.144 95.432 34.5C94.604 33.8867 94.0214 33.12 93.684 32.2C93.316 31.28 93.132 30.36 93.132 29.44C93.132 28.52 93.2547 27.8147 93.5 27.324C93.7454 26.8333 94.0367 26.4653 94.374 26.22C94.742 25.9747 95.0794 25.7907 95.386 25.668C95.7234 25.5453 95.9534 25.4227 96.076 25.3C96.996 24.288 97.8394 23.23 98.606 22.126C99.3727 21.022 100.047 19.8567 100.63 18.63V18.078C100.63 16.9433 100.814 16.146 101.182 15.686C101.581 15.1953 101.995 14.95 102.424 14.95C102.669 14.95 102.853 15.0113 102.976 15.134C103.099 15.2567 103.16 15.3947 103.16 15.548C103.16 15.7013 103.114 15.9467 103.022 16.284C102.93 16.6213 102.884 17.0507 102.884 17.572C102.884 18.584 103.083 19.688 103.482 20.884C103.881 22.0493 104.279 23.2913 104.678 24.61C105.077 25.898 105.276 27.2473 105.276 28.658C105.276 29.0567 105.245 29.4553 105.184 29.854C105.153 30.222 105.092 30.5747 105 30.912C106.073 30.728 107.085 30.2527 108.036 29.486C108.987 28.6887 109.907 27.4313 110.796 25.714L111.21 26.174C110.627 27.8607 109.753 29.1487 108.588 30.038C107.423 30.8967 106.15 31.4333 104.77 31.648C104.279 32.9667 103.497 33.9327 102.424 34.546C101.381 35.1593 100.201 35.466 98.882 35.466ZM98.974 33.856C99.342 33.856 99.8327 33.7333 100.446 33.488C101.059 33.2427 101.535 32.614 101.872 31.602C100.584 31.3567 99.434 30.8507 98.422 30.084C97.4407 29.3173 96.7047 28.5507 96.214 27.784C95.5394 27.8147 95.202 28.3513 95.202 29.394C95.202 30.498 95.524 31.5253 96.168 32.476C96.8427 33.396 97.778 33.856 98.974 33.856ZM102.102 30.866C102.163 30.5593 102.209 30.2373 102.24 29.9C102.271 29.5627 102.286 29.164 102.286 28.704C102.286 27.2627 102.102 25.8367 101.734 24.426C101.397 22.9847 101.105 21.6353 100.86 20.378C100.155 21.5433 99.4034 22.6627 98.606 23.736C97.8394 24.7787 97.1034 25.6527 96.398 26.358C96.858 27.3393 97.5634 28.2593 98.514 29.118C99.4954 29.9767 100.691 30.5593 102.102 30.866Z" fill="black"/>
<path d="M95.7785 6.624C95.5638 6.47067 95.3645 6.28667 95.1805 6.072C94.9965 5.85733 94.9045 5.612 94.9045 5.336C94.9045 4.93733 95.1191 4.43133 95.5485 3.818C95.9778 3.174 96.4225 2.51467 96.8825 1.84C97.3425 1.16533 97.6491 0.552 97.8025 0C98.1091 0 98.3698 0.137999 98.5845 0.414C98.8298 0.659333 98.9525 0.950667 98.9525 1.288C98.9525 1.68667 98.7685 2.19267 98.4005 2.806C98.0325 3.41933 97.5878 4.06333 97.0665 4.738C96.5758 5.41267 96.1465 6.04133 95.7785 6.624Z" fill="black"/>
<path d="M79.9933 35.236C78.6746 35.236 77.6626 34.8527 76.9573 34.086C76.2519 33.3193 75.8993 32.1847 75.8993 30.682C75.8993 29.3327 76.1446 27.6767 76.6353 25.714C77.1566 23.7207 77.8006 21.6813 78.5673 19.596C78.2606 19.5347 77.9693 19.4887 77.6933 19.458C77.4173 19.3967 77.1566 19.32 76.9113 19.228V18.4C77.1566 18.4307 77.448 18.4613 77.7853 18.492C78.1226 18.5227 78.5059 18.5533 78.9353 18.584C79.5793 16.928 80.2693 15.3333 81.0053 13.8C81.7413 12.236 82.4619 10.856 83.1673 9.66C83.9033 8.43334 84.5933 7.46734 85.2373 6.762C85.9119 6.026 86.4793 5.658 86.9393 5.658C87.1846 5.658 87.3993 5.75 87.5833 5.934C87.7979 6.08734 87.9053 6.33267 87.9053 6.67C87.9053 7.19134 87.5833 8.05 86.9393 9.246C86.2953 10.4113 85.498 11.8067 84.5473 13.432C83.5966 15.0573 82.6766 16.8207 81.7873 18.722C82.0633 18.722 82.3393 18.722 82.6153 18.722C82.9219 18.722 83.2133 18.722 83.4893 18.722C84.5013 18.722 85.5593 18.7067 86.6633 18.676C87.7979 18.6453 88.9326 18.5687 90.0673 18.446V19.274C88.3806 19.458 86.8626 19.596 85.5133 19.688C84.1946 19.78 83.0139 19.826 81.9713 19.826C81.8486 19.826 81.7259 19.826 81.6033 19.826C81.5113 19.826 81.4039 19.826 81.2813 19.826C80.5759 21.4513 79.9779 23.1227 79.4873 24.84C78.9966 26.5573 78.7513 28.2287 78.7513 29.854C78.7513 31.1727 78.9506 32.1233 79.3493 32.706C79.7479 33.258 80.4073 33.534 81.3273 33.534C82.922 33.534 84.4859 32.8287 86.0193 31.418C87.5526 30.0073 88.9019 28.0907 90.0673 25.668L90.6653 26.128C89.9293 27.8453 88.9939 29.394 87.8593 30.774C86.7553 32.154 85.5286 33.2427 84.1793 34.04C82.8299 34.8373 81.4346 35.236 79.9933 35.236Z" fill="black"/>
<path d="M68.0491 34.316C67.0064 34.316 66.1784 34.04 65.5651 33.488C64.9824 32.936 64.6911 32.2153 64.6911 31.326C64.6911 30.406 64.9058 29.44 65.3351 28.428C65.7644 27.416 66.1784 26.4193 66.5771 25.438C67.0064 24.426 67.2211 23.5213 67.2211 22.724C67.2211 21.7427 66.9298 21.022 66.3471 20.562C65.7951 20.0713 65.2278 19.6267 64.6451 19.228C63.9398 21.0373 63.2038 22.7547 62.4371 24.38C61.6704 26.0053 61.0418 27.232 60.5511 28.06L60.1371 27.278C60.5664 26.4807 61.1184 25.3153 61.7931 23.782C62.4984 22.2487 63.1884 20.5007 63.8631 18.538C63.5564 18.2313 63.4031 17.8633 63.4031 17.434C63.4031 16.514 63.6638 15.7627 64.1851 15.18C64.7064 14.5973 65.0898 14.306 65.3351 14.306C65.6724 14.306 65.8564 14.4593 65.8871 14.766C65.9484 15.042 65.9791 15.2567 65.9791 15.41C65.9791 15.5633 65.8871 15.87 65.7031 16.33C65.5498 16.7593 65.4731 17.02 65.4731 17.112C65.4731 17.5413 65.7031 17.94 66.1631 18.308C66.6538 18.6453 67.2058 19.044 67.8191 19.504C68.4324 19.9333 68.9691 20.47 69.4291 21.114C69.9198 21.7273 70.1651 22.5247 70.1651 23.506C70.1651 24.426 69.9658 25.3613 69.5671 26.312C69.1991 27.2627 68.8158 28.1673 68.4171 29.026C68.0491 29.8847 67.8651 30.636 67.8651 31.28C67.8651 31.832 68.0031 32.2 68.2791 32.384C68.5551 32.568 68.8771 32.66 69.2451 32.66C69.9811 32.66 70.7324 32.43 71.4991 31.97C72.2964 31.51 73.0631 30.9273 73.7991 30.222C74.5351 29.5167 75.1944 28.7807 75.7771 28.014C76.3598 27.2167 76.7891 26.4807 77.0651 25.806L77.6631 26.266C77.0804 27.554 76.2831 28.8267 75.2711 30.084C74.2591 31.3107 73.1244 32.3227 71.8671 33.12C70.6404 33.9173 69.3678 34.316 68.0491 34.316Z" fill="black"/>
<path d="M42.2639 35.282C41.3133 35.282 40.5159 34.96 39.8719 34.316C39.1973 33.7027 38.8599 32.752 38.8599 31.464C38.8599 30.36 39.1053 29.1793 39.5959 27.922C40.0866 26.634 40.7613 25.3767 41.6199 24.15C42.4786 22.8927 43.4446 21.758 44.5179 20.746C45.6219 19.7033 46.7719 18.8753 47.9679 18.262C49.1946 17.6487 50.4059 17.342 51.6019 17.342C52.7979 17.342 53.7946 17.664 54.5919 18.308C55.3893 18.9213 55.7879 19.7493 55.7879 20.792C55.7879 21.5587 55.5733 22.08 55.1439 22.356C54.7453 22.632 54.2086 22.77 53.5339 22.77C53.5953 22.5247 53.6413 22.264 53.6719 21.988C53.7333 21.6813 53.7639 21.4053 53.7639 21.16C53.7639 20.4547 53.5953 19.8567 53.2579 19.366C52.9206 18.8447 52.3379 18.584 51.5099 18.584C50.6513 18.584 49.7773 18.8907 48.8879 19.504C47.9986 20.0867 47.1399 20.884 46.3119 21.896C45.4839 22.8773 44.7479 23.9507 44.1039 25.116C43.4599 26.2813 42.9539 27.4313 42.5859 28.566C42.2179 29.7007 42.0339 30.7127 42.0339 31.602C42.0339 32.798 42.4479 33.396 43.2759 33.396C43.9813 33.396 44.7479 33.074 45.5759 32.43C46.4039 31.7553 47.2473 30.912 48.1059 29.9C48.9953 28.8573 49.8386 27.784 50.6359 26.68C51.4333 25.576 52.1386 24.564 52.7519 23.644C52.8746 23.46 52.9513 23.368 52.9819 23.368C53.1659 23.3987 53.3959 23.46 53.6719 23.552C53.9786 23.644 54.2393 23.7667 54.4539 23.92C54.6686 24.0733 54.7759 24.2727 54.7759 24.518C54.7759 24.794 54.6379 25.1773 54.3619 25.668C54.0859 26.128 53.7793 26.6647 53.4419 27.278C53.1046 27.8913 52.7979 28.52 52.5219 29.164C52.2459 29.7773 52.1079 30.36 52.1079 30.912C52.1079 31.372 52.2306 31.832 52.4759 32.292C52.7213 32.7213 53.1199 32.936 53.6719 32.936C54.4999 32.936 55.5886 32.338 56.9379 31.142C58.2873 29.9153 59.6519 28.0907 61.0319 25.668L61.4919 26.128C60.8479 27.784 60.0199 29.2407 59.0079 30.498C57.9959 31.7553 56.9073 32.7367 55.7419 33.442C54.6073 34.1473 53.4879 34.5 52.3839 34.5C51.2493 34.5 50.4059 34.1627 49.8539 33.488C49.3326 32.8133 49.0719 32.0773 49.0719 31.28C49.0719 31.096 49.0873 30.8967 49.1179 30.682C49.1486 30.4367 49.1793 30.1913 49.2099 29.946C47.8913 31.7247 46.6799 33.0587 45.5759 33.948C44.5026 34.8373 43.3986 35.282 42.2639 35.282Z" fill="black"/>
<path d="M29.7056 35.144C27.8349 35.144 26.4242 34.6227 25.4736 33.58C24.5536 32.568 24.0936 31.3107 24.0936 29.808C24.0936 28.428 24.4309 26.9713 25.1056 25.438C25.8109 23.9047 26.7309 22.4633 27.8656 21.114C29.0309 19.7647 30.3036 18.676 31.6836 17.848C33.0636 16.9893 34.4282 16.56 35.7776 16.56C36.4829 16.56 37.1269 16.744 37.7096 17.112C38.3229 17.48 38.6296 18.2313 38.6296 19.366C38.6296 20.5313 38.2769 21.6353 37.5716 22.678C36.8969 23.69 35.9922 24.5947 34.8576 25.392C33.7536 26.1893 32.5269 26.8487 31.1776 27.37C29.8589 27.8607 28.5402 28.1673 27.2216 28.29C27.1602 28.5967 27.1142 28.888 27.0836 29.164C27.0529 29.44 27.0376 29.7007 27.0376 29.946C27.0376 30.406 27.0836 30.866 27.1756 31.326C27.2982 31.786 27.4976 32.2153 27.7736 32.614C28.0496 32.982 28.4176 33.2733 28.8776 33.488C29.3682 33.7027 29.9662 33.81 30.6716 33.81C31.9902 33.81 33.2936 33.442 34.5816 32.706C35.8696 31.9393 37.0656 30.9427 38.1696 29.716C39.2736 28.4893 40.2089 27.14 40.9756 25.668L41.5276 26.082C40.6996 27.922 39.6416 29.5167 38.3536 30.866C37.0962 32.2153 35.7162 33.258 34.2136 33.994C32.7416 34.7607 31.2389 35.144 29.7056 35.144ZM27.4516 27.416C28.2796 27.14 29.2149 26.7413 30.2576 26.22C31.3002 25.668 32.2969 25.024 33.2476 24.288C34.2289 23.552 35.0262 22.7393 35.6396 21.85C36.2836 20.9607 36.6056 20.0253 36.6056 19.044C36.6056 18.7067 36.5442 18.446 36.4216 18.262C36.2989 18.078 36.0382 17.986 35.6396 17.986C34.9036 17.986 34.1216 18.2773 33.2936 18.86C32.4656 19.412 31.6682 20.148 30.9016 21.068C30.1349 21.988 29.4449 23 28.8316 24.104C28.2182 25.208 27.7582 26.312 27.4516 27.416Z" fill="black"/>
<path d="M0 37.122C0.184 36.0487 0.398667 34.9447 0.644 33.81C0.889333 32.706 1.196 31.464 1.564 30.084C1.96267 28.6733 2.438 27.048 2.99 25.208C3.542 23.368 4.232 21.1907 5.06 18.676C4.56933 18.7067 4.06333 18.7527 3.542 18.814C3.05133 18.8753 2.54533 18.9367 2.024 18.998C2.05467 18.2313 2.40733 17.6333 3.082 17.204C3.78733 16.744 4.70733 16.4067 5.842 16.192C6.05667 15.548 6.27133 14.8887 6.486 14.214C6.73133 13.5087 6.97667 12.788 7.222 12.052C7.46733 11.2853 7.728 10.5187 8.004 9.752C8.28 8.95467 8.556 8.12667 8.832 7.268C9.13867 6.40933 9.44533 5.53533 9.752 4.646C9.87467 4.30867 10.0127 3.89467 10.166 3.404C10.3193 2.88267 10.396 2.392 10.396 1.932C10.396 1.68667 10.35 1.518 10.258 1.426C10.1967 1.334 10.028 1.288 9.752 1.288C9.016 1.288 8.29533 1.59467 7.59 2.208C6.91533 2.79066 6.302 3.542 5.75 4.462C5.22867 5.382 4.81467 6.33267 4.508 7.314C4.20133 8.29533 4.048 9.16933 4.048 9.936C4.048 10.212 4.06333 10.488 4.094 10.764C4.15533 11.04 4.21667 11.2853 4.278 11.5C3.266 11.5 2.54533 11.2547 2.116 10.764C1.71733 10.2427 1.518 9.614 1.518 8.878C1.518 7.83533 1.82467 6.79267 2.438 5.75C3.05133 4.70733 3.83333 3.75667 4.784 2.898C5.76533 2.00867 6.77733 1.30333 7.82 0.782001C8.89333 0.260667 9.85933 0 10.718 0C11.546 0 12.098 0.229999 12.374 0.689999C12.6807 1.15 12.834 1.656 12.834 2.208C12.834 2.54533 12.788 2.88267 12.696 3.22C12.6347 3.55733 12.558 3.87933 12.466 4.186L8.878 15.87C9.30733 15.8393 9.73667 15.824 10.166 15.824C10.626 15.7933 11.086 15.778 11.546 15.778C12.9873 15.778 14.352 15.824 15.64 15.916C16.9587 15.9773 18.2007 16.0693 19.366 16.192C19.9793 14.2293 20.5773 12.2973 21.16 10.396C21.7733 8.49467 22.3253 6.83867 22.816 5.428C23.3373 3.98667 23.736 2.97467 24.012 2.392C24.1347 2.14667 24.3033 1.84 24.518 1.472C24.7327 1.104 25.0087 0.766665 25.346 0.459999C25.714 0.153333 26.1127 0 26.542 0C26.1127 1.13467 25.622 2.59133 25.07 4.37C24.518 6.118 23.9507 8.03467 23.368 10.12C22.816 12.2053 22.264 14.2907 21.712 16.376C22.3253 16.4067 22.908 16.4527 23.46 16.514C24.0427 16.5447 24.61 16.56 25.162 16.56C24.4873 17.2653 23.828 17.6947 23.184 17.848C22.54 17.9707 21.9113 18.032 21.298 18.032C21.022 19.1667 20.7613 20.2707 20.516 21.344C20.2707 22.3867 20.056 23.3833 19.872 24.334C19.32 26.9407 18.9213 29.164 18.676 31.004C18.4613 32.844 18.354 34.3313 18.354 35.466C18.354 35.834 18.354 36.1407 18.354 36.386C18.3847 36.662 18.4153 36.9073 18.446 37.122C17.25 36.9993 16.422 36.662 15.962 36.11C15.502 35.558 15.272 34.6993 15.272 33.534C15.272 32.7367 15.364 31.74 15.548 30.544C15.732 29.3173 16.008 27.9987 16.376 26.588C16.6213 25.668 16.9587 24.4567 17.388 22.954C17.8173 21.4207 18.2927 19.7953 18.814 18.078C16.9433 18.078 15.3793 18.0933 14.122 18.124C12.8647 18.1547 11.776 18.1853 10.856 18.216C9.936 18.2467 9.016 18.308 8.096 18.4C7.544 20.1787 6.992 21.942 6.44 23.69C5.888 25.438 5.382 27.048 4.922 28.52C4.462 29.9613 4.07867 31.188 3.772 32.2C3.46533 33.212 3.266 33.8713 3.174 34.178C2.86733 35.2207 2.37667 35.972 1.702 36.432C1.058 36.892 0.490667 37.122 0 37.122Z" fill="black"/>
</svg>
